<svg xmlns="http://www.w3.org/2000/svg" viewBox="0 0 100 100" width="100" height="100">
  <rect width="100" height="100" fill="white"/>
  <circle cx="50" cy="50" r="38" fill="#1DA1F2"/>
  <path d="M72 36c-2 .9-4.1 1.5-6.3 1.8 2.3-1.4 4-3.5 4.8-6.1-2.1 1.3-4.5 2.2-7 2.7-2-2.1-4.8-3.4-8-3.4-6 0-10.9 4.9-10.9 10.9 0 .9.1 1.7.3 2.5-9.1-.5-17.1-4.8-22.5-11.4-.9 1.6-1.5 3.5-1.5 5.5 0 3.8 1.9 7.1 4.9 9.1-1.8-.1-3.5-.6-5-1.4v.1c0 5.3 3.7 9.7 8.7 10.7-1 .3-1.9.4-2.9.4-.7 0-1.4-.1-2.1-.2 1.4 4.4 5.5 7.5 10.3 7.6-3.8 3-8.5 4.7-13.7 4.7-.9 0-1.8-.1-2.6-.2 4.9 3.1 10.6 5 16.8 5 20.1 0 31.1-16.7 31.1-31.1 0-.5 0-.9 0-1.4 2.1-1.5 4-3.5 5.5-5.7z" fill="white"/>
</svg>
